<svg xmlns="http://www.w3.org/2000/svg" viewBox="0 0 622.92 623.66" xmlns:v="https://vecta.io/nano"><g fill="#fff" stroke="#332e2f" stroke-width="17"><circle cx="292.08" cy="311.83" r="257.26"/><g stroke-miterlimit="10"><path d="M85.72,340.86c0,102.66,92.39,185.88,206.35,185.88s206.35-83.22,206.35-185.88H254.4"/><path d="M490.82 340.86c0 38.98-31.6 70.59-70.59 70.59s-70.59-31.6-70.59-70.59h141.18zm38.1 50.04c51.45 0 59.18-41.66 59.18-93.04s-7.73-82.12-59.18-82.12v97.43m-443.2-70.88c0 33.71 30.34 61.03 67.76 61.03s67.76-27.33 67.76-61.03h-80.13m143.61 0c0 33.71 30.34 61.03 67.76 61.03s67.76-27.33 67.76-61.03h-80.13"/></g></g><g fill="none"><path d="M420.23 196.93l44.9-44.89" stroke="#332e2f" stroke-width="17" stroke-miterlimit="10"/><path d="M465.13 196.93l-44.9-44.89" stroke="#332e2f" stroke-width="17" stroke-miterlimit="10"/></g></svg>